<svg width="616" height="505" viewBox="0 0 616 505" fill="none" xmlns="http://www.w3.org/2000/svg">
<ellipse cx="233.007" cy="252.9" rx="160.357" ry="202.15" transform="rotate(26.1177 233.007 252.9)" fill="#54151C"/>
<path d="M75.8 291V221H85.5L128.3 278.3L126.7 279.2C126.433 277.533 126.2 275.733 126 273.8C125.8 271.8 125.6 269.7 125.4 267.5C125.267 265.233 125.133 262.867 125 260.4C124.933 257.867 124.867 255.233 124.8 252.5C124.733 249.767 124.7 246.933 124.7 244V221H135.5V291H125.6L83.5 235.8L84.6 234.4C84.9333 238.467 85.2 241.933 85.4 244.8C85.6667 247.6 85.8667 250 86 252C86.2 253.933 86.3333 255.533 86.4 256.8C86.4667 258 86.5 259 86.5 259.8C86.5667 260.6 86.6 261.3 86.6 261.9V291H75.8ZM200.797 291V221H211.597V291H200.797ZM155.097 291V221H165.897V291H155.097ZM159.797 261.3V250.9H205.597V261.3H159.797ZM228.571 291V281H239.871V231H228.571V221H261.971V231H250.671V281H261.971V291H228.571ZM278.925 291V221H323.025V231.4H289.725V280.6H323.025V291H278.925ZM283.825 260.3V249.9H317.525V260.3H283.825ZM367.551 291.6C362.151 291.6 357.317 290.433 353.051 288.1C348.784 285.7 345.417 282.433 342.951 278.3C340.551 274.1 339.351 269.367 339.351 264.1V220.9H350.151V263.2C350.151 266.6 350.951 269.667 352.551 272.4C354.151 275.067 356.251 277.2 358.851 278.8C361.517 280.4 364.417 281.2 367.551 281.2C370.884 281.2 373.884 280.4 376.551 278.8C379.284 277.2 381.451 275.067 383.051 272.4C384.651 269.667 385.451 266.6 385.451 263.2V220.9H395.751V264.1C395.751 269.367 394.517 274.1 392.051 278.3C389.651 282.433 386.317 285.7 382.051 288.1C377.784 290.433 372.951 291.6 367.551 291.6Z" fill="white"/>
<path d="M434.974 291L406.974 221H419.274L435.974 263.5C436.774 265.567 437.474 267.433 438.074 269.1C438.741 270.767 439.308 272.3 439.774 273.7C440.241 275.033 440.674 276.3 441.074 277.5C441.474 278.7 441.874 279.9 442.274 281.1L439.674 281.2C440.141 279.6 440.641 277.933 441.174 276.2C441.708 274.467 442.308 272.567 442.974 270.5C443.708 268.433 444.574 266.1 445.574 263.5L461.074 221H473.674L445.474 291H434.974ZM484.959 291V238.5H495.259V291H484.959ZM489.959 226.9C487.759 226.9 486.059 226.333 484.859 225.2C483.659 224.067 483.059 222.467 483.059 220.4C483.059 218.467 483.659 216.9 484.859 215.7C486.125 214.5 487.825 213.9 489.959 213.9C492.159 213.9 493.859 214.467 495.059 215.6C496.259 216.733 496.859 218.333 496.859 220.4C496.859 222.333 496.225 223.9 494.959 225.1C493.759 226.3 492.092 226.9 489.959 226.9ZM535.591 292C530.191 292 525.391 290.867 521.191 288.6C517.057 286.267 513.791 283.1 511.391 279.1C509.057 275.1 507.891 270.5 507.891 265.3C507.891 261.167 508.557 257.4 509.891 254C511.224 250.6 513.057 247.667 515.391 245.2C517.791 242.667 520.624 240.733 523.891 239.4C527.224 238 530.824 237.3 534.691 237.3C538.091 237.3 541.257 237.967 544.191 239.3C547.124 240.567 549.657 242.333 551.791 244.6C553.991 246.867 555.657 249.567 556.791 252.7C557.991 255.767 558.557 259.133 558.491 262.8L558.391 267.2H515.491L513.191 259H549.491L547.991 260.7V258.3C547.791 256.1 547.057 254.133 545.791 252.4C544.524 250.667 542.924 249.3 540.991 248.3C539.057 247.3 536.957 246.8 534.691 246.8C531.091 246.8 528.057 247.5 525.591 248.9C523.124 250.233 521.257 252.233 519.991 254.9C518.724 257.5 518.091 260.733 518.091 264.6C518.091 268.267 518.857 271.467 520.391 274.2C521.924 276.867 524.091 278.933 526.891 280.4C529.691 281.867 532.924 282.6 536.591 282.6C539.191 282.6 541.591 282.167 543.791 281.3C546.057 280.433 548.491 278.867 551.091 276.6L556.291 283.9C554.691 285.5 552.724 286.9 550.391 288.1C548.124 289.3 545.691 290.267 543.091 291C540.557 291.667 538.057 292 535.591 292ZM591.984 292C587.118 292 582.751 290.8 578.884 288.4C575.084 286 572.051 282.733 569.784 278.6C567.584 274.467 566.484 269.833 566.484 264.7C566.484 259.567 567.584 254.933 569.784 250.8C572.051 246.667 575.084 243.4 578.884 241C582.751 238.6 587.118 237.4 591.984 237.4C596.651 237.4 600.884 238.367 604.684 240.3C608.551 242.167 611.484 244.733 613.484 248L607.784 255C606.718 253.467 605.351 252.067 603.684 250.8C602.018 249.533 600.251 248.533 598.384 247.8C596.518 247.067 594.718 246.7 592.984 246.7C589.784 246.7 586.918 247.5 584.384 249.1C581.918 250.633 579.951 252.767 578.484 255.5C577.018 258.233 576.284 261.3 576.284 264.7C576.284 268.1 577.051 271.167 578.584 273.9C580.118 276.567 582.151 278.7 584.684 280.3C587.218 281.9 590.018 282.7 593.084 282.7C594.884 282.7 596.618 282.4 598.284 281.8C600.018 281.2 601.684 280.3 603.284 279.1C604.884 277.9 606.384 276.433 607.784 274.7L613.484 281.7C611.351 284.7 608.284 287.167 604.284 289.1C600.351 291.033 596.251 292 591.984 292Z" fill="black"/>
</svg>
