<svg width="613" height="505" viewBox="0 0 613 505" fill="none" xmlns="http://www.w3.org/2000/svg">
<ellipse cx="232.972" cy="252.1" rx="160.357" ry="202.15" transform="rotate(26.1177 232.972 252.1)" fill="#54151C"/>
<path d="M72.736 300V232.8H85.6L122.752 283.008H120.064C119.808 281.024 119.584 279.104 119.392 277.248C119.2 275.328 119.008 273.408 118.816 271.488C118.688 269.504 118.56 267.488 118.432 265.44C118.368 263.328 118.304 261.12 118.24 258.816C118.176 256.448 118.144 253.888 118.144 251.136V232.8H132.256V300H119.2L81.28 249.312L84.928 249.408C85.248 252.736 85.504 255.584 85.696 257.952C85.952 260.256 86.144 262.272 86.272 264C86.4 265.728 86.496 267.232 86.56 268.512C86.688 269.792 86.752 271.008 86.752 272.16C86.816 273.312 86.848 274.528 86.848 275.808V300H72.736ZM192.041 300V232.8H206.441V300H192.041ZM149.705 300V232.8H164.105V300H149.705ZM155.465 273.024L155.561 259.968H199.433V273.024H155.465ZM222.227 300V287.616H233.459V245.184H222.227V232.8H259.091V245.184H247.859V287.616H259.091V300H222.227ZM274.861 300V232.8H320.269V245.472H288.877V287.328H320.941V300H274.861ZM281.581 271.872V259.584H315.661V271.872H281.581ZM363.447 300.576C358.007 300.576 353.143 299.456 348.855 297.216C344.631 294.912 341.303 291.776 338.871 287.808C336.439 283.776 335.223 279.232 335.223 274.176V232.704H349.719V273.312C349.719 276 350.327 278.432 351.543 280.608C352.759 282.72 354.391 284.416 356.439 285.696C358.551 286.976 360.887 287.616 363.447 287.616C366.071 287.616 368.439 286.976 370.551 285.696C372.727 284.416 374.423 282.72 375.639 280.608C376.919 278.432 377.559 276 377.559 273.312V232.704H391.575V274.176C391.575 279.232 390.359 283.776 387.927 287.808C385.495 291.776 382.135 294.912 377.847 297.216C373.623 299.456 368.823 300.576 363.447 300.576ZM427.559 300L400.775 232.8H416.039L430.055 269.184C430.823 271.168 431.463 272.928 431.975 274.464C432.551 275.936 433.031 277.344 433.415 278.688C433.863 279.968 434.279 281.248 434.663 282.528C435.047 283.744 435.431 285.088 435.815 286.56L433.031 286.656C433.543 284.672 434.055 282.848 434.567 281.184C435.079 279.456 435.655 277.664 436.295 275.808C436.935 273.952 437.735 271.744 438.695 269.184L451.943 232.8H467.111L440.135 300H427.559ZM476.124 300V249.216H489.756V300H476.124ZM482.844 238.752C480.22 238.752 478.172 238.112 476.7 236.832C475.228 235.552 474.492 233.728 474.492 231.36C474.492 229.184 475.228 227.424 476.7 226.08C478.236 224.672 480.284 223.968 482.844 223.968C485.468 223.968 487.516 224.64 488.988 225.984C490.46 227.264 491.196 229.056 491.196 231.36C491.196 233.6 490.428 235.392 488.892 236.736C487.42 238.08 485.404 238.752 482.844 238.752ZM528.412 300.96C522.908 300.96 518.108 299.84 514.012 297.6C509.916 295.36 506.716 292.288 504.412 288.384C502.108 284.48 500.956 280 500.956 274.944C500.956 271.04 501.596 267.456 502.876 264.192C504.156 260.928 505.948 258.112 508.252 255.744C510.556 253.312 513.276 251.456 516.412 250.176C519.612 248.832 523.068 248.16 526.78 248.16C530.236 248.16 533.436 248.8 536.38 250.08C539.324 251.296 541.852 253.056 543.964 255.36C546.14 257.6 547.804 260.256 548.956 263.328C550.108 266.4 550.62 269.76 550.492 273.408L550.396 277.632H509.596L507.388 269.28H539.164L537.628 271.008V268.896C537.5 267.168 536.924 265.6 535.9 264.192C534.94 262.784 533.692 261.696 532.156 260.928C530.62 260.16 528.892 259.776 526.972 259.776C524.156 259.776 521.756 260.32 519.772 261.408C517.852 262.496 516.38 264.096 515.356 266.208C514.332 268.32 513.82 270.88 513.82 273.888C513.82 276.96 514.46 279.616 515.74 281.856C517.084 284.096 518.94 285.856 521.308 287.136C523.74 288.352 526.588 288.96 529.852 288.96C532.092 288.96 534.14 288.608 535.996 287.904C537.852 287.2 539.836 285.984 541.948 284.256L548.476 293.376C546.62 295.04 544.572 296.448 542.332 297.6C540.092 298.688 537.788 299.52 535.42 300.096C533.052 300.672 530.716 300.96 528.412 300.96ZM582.646 300.96C577.782 300.96 573.43 299.808 569.59 297.504C565.75 295.2 562.71 292.064 560.47 288.096C558.294 284.128 557.206 279.616 557.206 274.56C557.206 269.568 558.294 265.088 560.47 261.12C562.71 257.088 565.75 253.92 569.59 251.616C573.43 249.312 577.782 248.16 582.646 248.16C587.19 248.16 591.35 248.992 595.126 250.656C598.902 252.32 601.846 254.624 603.958 257.568L596.47 266.592C595.574 265.376 594.454 264.288 593.11 263.328C591.766 262.304 590.294 261.504 588.694 260.928C587.158 260.352 585.558 260.064 583.894 260.064C581.27 260.064 578.934 260.704 576.886 261.984C574.902 263.2 573.334 264.896 572.182 267.072C571.03 269.248 570.454 271.744 570.454 274.56C570.454 277.312 571.03 279.776 572.182 281.952C573.398 284.064 575.03 285.792 577.078 287.136C579.126 288.416 581.43 289.056 583.99 289.056C585.654 289.056 587.222 288.832 588.694 288.384C590.166 287.872 591.542 287.136 592.822 286.176C594.166 285.216 595.382 284.064 596.47 282.72L603.862 291.744C601.686 294.496 598.678 296.736 594.838 298.464C590.998 300.128 586.934 300.96 582.646 300.96Z" fill="white"/>
</svg>
