<svg width="466" height="505" viewBox="0 0 466 505" fill="none" xmlns="http://www.w3.org/2000/svg">
<ellipse cx="232.972" cy="252.1" rx="160.357" ry="202.15" transform="rotate(26.1177 232.972 252.1)" fill="url(#paint0_linear_5_2)"/>
<path d="M72.736 300V232.8H85.6L122.752 283.008H120.064C119.808 281.024 119.584 279.104 119.392 277.248C119.2 275.328 119.008 273.408 118.816 271.488C118.688 269.504 118.56 267.488 118.432 265.44C118.368 263.328 118.304 261.12 118.24 258.816C118.176 256.448 118.144 253.888 118.144 251.136V232.8H132.256V300H119.2L81.28 249.312L84.928 249.408C85.248 252.736 85.504 255.584 85.696 257.952C85.952 260.256 86.144 262.272 86.272 264C86.4 265.728 86.496 267.232 86.56 268.512C86.688 269.792 86.752 271.008 86.752 272.16C86.816 273.312 86.848 274.528 86.848 275.808V300H72.736ZM192.041 300V232.8H206.441V300H192.041ZM149.705 300V232.8H164.105V300H149.705ZM155.465 273.024L155.561 259.968H199.433V273.024H155.465ZM222.227 300V287.616H233.459V245.184H222.227V232.8H259.091V245.184H247.859V287.616H259.091V300H222.227ZM274.861 300V232.8H320.269V245.472H288.877V287.328H320.941V300H274.861ZM281.581 271.872V259.584H315.661V271.872H281.581ZM363.447 300.576C358.007 300.576 353.143 299.456 348.855 297.216C344.631 294.912 341.303 291.776 338.871 287.808C336.439 283.776 335.223 279.232 335.223 274.176V232.704H349.719V273.312C349.719 276 350.327 278.432 351.543 280.608C352.759 282.72 354.391 284.416 356.439 285.696C358.551 286.976 360.887 287.616 363.447 287.616C366.071 287.616 368.439 286.976 370.551 285.696C372.727 284.416 374.423 282.72 375.639 280.608C376.919 278.432 377.559 276 377.559 273.312V232.704H391.575V274.176C391.575 279.232 390.359 283.776 387.927 287.808C385.495 291.776 382.135 294.912 377.847 297.216C373.623 299.456 368.823 300.576 363.447 300.576Z" fill="white"/>
<defs>
<linearGradient id="paint0_linear_5_2" x1="255.075" y1="49.9504" x2="300.049" y2="444.074" gradientUnits="userSpaceOnUse">
<stop stop-color="#54151C"/>
<stop offset="0.652198" stop-color="#121212"/>
</linearGradient>
</defs>
</svg>
