<svg width="466" height="505" viewBox="0 0 466 505" fill="none" xmlns="http://www.w3.org/2000/svg">
<ellipse cx="233.007" cy="252.9" rx="160.357" ry="202.15" transform="rotate(26.1177 233.007 252.9)" fill="#3C1990"/>
<path d="M75.8 291V221H85.5L128.3 278.3L126.7 279.2C126.433 277.533 126.2 275.733 126 273.8C125.8 271.8 125.6 269.7 125.4 267.5C125.267 265.233 125.133 262.867 125 260.4C124.933 257.867 124.867 255.233 124.8 252.5C124.733 249.767 124.7 246.933 124.7 244V221H135.5V291H125.6L83.5 235.8L84.6 234.4C84.9333 238.467 85.2 241.933 85.4 244.8C85.6667 247.6 85.8667 250 86 252C86.2 253.933 86.3333 255.533 86.4 256.8C86.4667 258 86.5 259 86.5 259.8C86.5667 260.6 86.6 261.3 86.6 261.9V291H75.8ZM200.797 291V221H211.597V291H200.797ZM155.097 291V221H165.897V291H155.097ZM159.797 261.3V250.9H205.597V261.3H159.797ZM228.571 291V281H239.871V231H228.571V221H261.971V231H250.671V281H261.971V291H228.571ZM278.925 291V221H323.025V231.4H289.725V280.6H323.025V291H278.925ZM283.825 260.3V249.9H317.525V260.3H283.825ZM367.551 291.6C362.151 291.6 357.317 290.433 353.051 288.1C348.784 285.7 345.417 282.433 342.951 278.3C340.551 274.1 339.351 269.367 339.351 264.1V220.9H350.151V263.2C350.151 266.6 350.951 269.667 352.551 272.4C354.151 275.067 356.251 277.2 358.851 278.8C361.517 280.4 364.417 281.2 367.551 281.2C370.884 281.2 373.884 280.4 376.551 278.8C379.284 277.2 381.451 275.067 383.051 272.4C384.651 269.667 385.451 266.6 385.451 263.2V220.9H395.751V264.1C395.751 269.367 394.517 274.1 392.051 278.3C389.651 282.433 386.317 285.7 382.051 288.1C377.784 290.433 372.951 291.6 367.551 291.6Z" fill="white"/>
</svg>
