<svg width="428" height="182" viewBox="0 0 428 182" fill="none" xmlns="http://www.w3.org/2000/svg">
<g clip-path="url(#clip0_9429_137224)">
<g opacity="0.35">
<path fill-rule="evenodd" clip-rule="evenodd" d="M221.7 36.5582C222.601 34.1743 221.112 31.648 218.377 30.9166C215.638 30.1836 212.687 31.5222 211.787 33.9032C210.887 36.2872 212.376 38.8135 215.111 39.5448C217.849 40.2779 220.801 38.9392 221.7 36.5582Z" stroke="#A6A6A6" stroke-width="0.5" stroke-miterlimit="10"/>
<path fill-rule="evenodd" clip-rule="evenodd" d="M225.701 36.5578C227.887 30.781 224.276 24.6531 217.635 22.8773C210.998 21.1002 203.841 24.347 201.655 30.1238C199.468 35.9006 203.079 42.0285 209.721 43.8043C216.357 45.5814 223.515 42.3345 225.701 36.5578Z" stroke="#A6A6A6" stroke-width="0.5" stroke-miterlimit="10"/>
<path fill-rule="evenodd" clip-rule="evenodd" d="M229.704 36.56C233.174 27.3858 227.439 17.6592 216.9 14.8393C206.36 12.0194 194.999 17.1716 191.529 26.3457C188.059 35.5199 193.794 45.2465 204.333 48.0664C214.873 50.8863 226.234 45.7341 229.704 36.56Z" stroke="#A6A6A6" stroke-width="0.5" stroke-miterlimit="10"/>
<path fill-rule="evenodd" clip-rule="evenodd" d="M233.706 36.5638C238.459 23.9951 230.605 10.6686 216.164 6.80291C201.723 2.93724 186.156 9.99766 181.401 22.5646C176.648 35.1333 184.502 48.4598 198.943 52.3255C213.384 56.1912 228.951 49.1307 233.706 36.5638Z" stroke="#A6A6A6" stroke-width="0.5" stroke-miterlimit="10"/>
<path fill-rule="evenodd" clip-rule="evenodd" d="M237.711 36.5628C243.75 20.5984 233.769 3.67151 215.428 -1.23531C197.084 -6.1438 177.314 2.82192 171.274 18.7863C165.235 34.7507 175.215 51.6776 193.557 56.5844C211.898 61.4912 231.671 52.5272 237.711 36.5628Z" stroke="#A6A6A6" stroke-width="0.5" stroke-miterlimit="10"/>
<path fill-rule="evenodd" clip-rule="evenodd" d="M241.716 36.5662C249.038 17.2073 236.938 -3.31956 214.696 -9.27212C192.453 -15.2247 168.474 -4.35239 161.152 15.0065C153.831 34.3654 165.93 54.8922 188.173 60.8447C210.415 66.7973 234.395 55.925 241.716 36.5662Z" stroke="#A6A6A6" stroke-width="0.5" stroke-miterlimit="10"/>
<path fill-rule="evenodd" clip-rule="evenodd" d="M245.716 36.5645C254.324 13.8098 240.098 -10.3173 213.954 -17.3157C187.809 -24.311 159.625 -11.5335 151.02 11.2228C142.411 33.9774 156.638 58.1046 182.781 65.1029C208.927 72.0983 237.11 59.3207 245.716 36.5645Z" stroke="#A6A6A6" stroke-width="0.5" stroke-miterlimit="10"/>
<path fill-rule="evenodd" clip-rule="evenodd" d="M249.717 36.566C259.607 10.4169 243.264 -17.3131 213.215 -25.3514C183.168 -33.3925 150.779 -18.7067 140.887 7.44536C130.996 33.5945 147.342 61.3216 177.388 69.3627C207.435 77.4038 239.824 62.718 249.717 36.566Z" stroke="#A6A6A6" stroke-width="0.5" stroke-miterlimit="10"/>
<path fill-rule="evenodd" clip-rule="evenodd" d="M253.723 36.5662C264.898 7.01969 246.43 -24.3091 212.483 -33.3913C178.533 -42.4753 141.941 -25.8841 130.766 3.66237C119.591 33.2089 138.056 64.5359 172.005 73.6199C205.951 82.7051 242.548 66.1127 253.723 36.5662Z" stroke="#A6A6A6" stroke-width="0.5" stroke-miterlimit="10"/>
<path fill-rule="evenodd" clip-rule="evenodd" d="M257.727 36.569C270.187 3.62965 249.597 -31.3007 211.749 -41.4287C173.901 -51.5567 133.098 -33.0561 120.641 -0.115129C108.181 32.8242 128.77 67.7545 166.618 77.8826C204.467 88.0106 245.265 69.5112 257.727 36.569Z" stroke="#A6A6A6" stroke-width="0.5" stroke-miterlimit="10"/>
<path d="M261.728 36.5699C275.471 0.233171 252.761 -38.2942 211.012 -49.4679C169.262 -60.6417 124.253 -40.2329 110.511 -3.89905C96.7673 32.4377 119.477 70.965 161.227 82.1388C202.977 93.3125 247.981 72.905 261.725 36.5682" stroke="#A6A6A6" stroke-width="0.5" stroke-miterlimit="10"/>
<path d="M265.73 36.574C280.76 -3.15557 255.925 -45.2862 210.275 -57.5011C164.622 -69.7177 115.412 -47.4019 100.383 -7.67231C85.3571 32.0589 110.189 74.1879 155.842 86.4045C201.492 98.6194 250.702 76.3081 265.733 36.5757" stroke="#A6A6A6" stroke-width="0.5" stroke-miterlimit="10"/>
<path fill-rule="evenodd" clip-rule="evenodd" d="M269.737 36.572C286.05 -6.55496 259.094 -52.2826 209.54 -65.5449C159.986 -78.8073 106.571 -54.5832 90.2576 -11.4563C73.9445 31.6707 100.9 77.3983 150.454 90.6607C200.006 103.921 253.422 79.7019 269.737 36.572Z" stroke="#A6A6A6" stroke-width="0.5" stroke-miterlimit="10"/>
<path fill-rule="evenodd" clip-rule="evenodd" d="M273.734 36.5734C291.33 -9.94802 262.252 -59.2773 208.799 -73.5837C155.345 -87.8871 97.7233 -61.7595 80.1279 -15.238C62.5325 31.2834 91.6103 80.6127 145.063 94.9191C198.515 109.225 256.137 83.0978 273.734 36.5734Z" stroke="#A6A6A6" stroke-width="0.5" stroke-miterlimit="10"/>
<path d="M277.742 36.5741C296.624 -13.3431 265.424 -66.2739 208.067 -81.6203C150.711 -96.9695 88.8836 -68.9335 70.0013 -19.0164C51.119 30.9008 82.3206 83.8288 139.676 99.178C197.029 114.526 258.858 86.4942 277.739 36.5724" stroke="#A6A6A6" stroke-width="0.5" stroke-miterlimit="10"/>
<path d="M281.742 36.5763C301.908 -16.7383 268.585 -73.2679 207.329 -89.6583C146.07 -106.05 80.039 -76.1091 59.8744 -22.7974C39.7082 30.5172 73.0334 87.0438 134.29 103.439C195.544 119.832 261.58 89.8896 281.745 36.5779" stroke="#A6A6A6" stroke-width="0.5" stroke-miterlimit="10"/>
<path d="M285.746 36.5757C307.197 -20.1317 271.752 -80.2629 206.595 -97.699C141.435 -115.137 71.1978 -83.2873 49.7492 -26.5782C28.3007 30.1308 63.7433 90.2603 128.903 107.698C194.06 125.134 264.3 93.2864 285.749 36.5774" stroke="#A6A6A6" stroke-width="0.5" stroke-miterlimit="10"/>
<path d="M289.747 36.5793C312.483 -23.5255 274.914 -87.2553 205.855 -105.737C136.797 -124.219 62.3513 -90.463 39.6158 -30.3582C16.8803 29.7466 54.4496 93.4764 123.508 111.958C192.564 130.438 267.012 96.6841 289.745 36.5776" stroke="#A6A6A6" stroke-width="0.5" stroke-miterlimit="10"/>
<path fill-rule="evenodd" clip-rule="evenodd" d="M293.752 36.5805C317.77 -26.9188 278.082 -94.2485 205.12 -113.773C132.159 -133.298 53.5091 -97.6366 29.4914 -34.1373C5.47362 29.362 45.162 96.6918 118.123 116.216C191.082 135.739 269.731 100.078 293.752 36.5805Z" stroke="#A6A6A6" stroke-width="0.5" stroke-miterlimit="10"/>
<path fill-rule="evenodd" clip-rule="evenodd" d="M297.752 36.5808C323.056 -30.3143 281.241 -101.244 204.381 -121.813C127.519 -142.384 44.6619 -104.811 19.3619 -37.9173C-5.93988 28.9794 35.8722 99.9079 112.732 120.477C189.592 141.045 272.447 103.476 297.752 36.5808Z" stroke="#A6A6A6" stroke-width="0.5" stroke-miterlimit="10"/>
<path d="M301.754 36.5825C328.341 -33.707 284.407 -108.237 203.646 -129.852C122.88 -151.465 35.8194 -111.987 9.23709 -41.6987C-17.3499 28.5908 26.5842 103.121 107.348 124.737C188.107 146.35 275.17 106.874 301.757 36.5842" stroke="#A6A6A6" stroke-width="0.5" stroke-miterlimit="10"/>
<path fill-rule="evenodd" clip-rule="evenodd" d="M305.761 36.5831C333.635 -37.1021 287.576 -115.236 202.913 -137.888C118.249 -160.546 26.9826 -119.16 -0.889589 -45.4772C-28.7605 28.2098 17.2973 106.339 101.962 128.996C186.623 151.652 277.89 110.27 305.761 36.5831Z" stroke="#A6A6A6" stroke-width="0.5" stroke-miterlimit="10"/>
<path fill-rule="evenodd" clip-rule="evenodd" d="M309.761 36.586C338.918 -40.4938 290.739 -122.227 202.172 -145.927C113.605 -169.627 18.1347 -126.336 -11.0215 -49.2562C-40.1776 27.8235 8.00217 109.554 96.5679 133.257C185.131 156.958 280.604 113.669 309.761 36.586Z" stroke="#A6A6A6" stroke-width="0.5" stroke-miterlimit="10"/>
<path fill-rule="evenodd" clip-rule="evenodd" d="M313.767 36.5852C344.207 -43.892 293.905 -129.224 201.44 -153.968C108.971 -178.714 9.29519 -133.514 -21.1433 -53.0402C-51.5834 27.4369 -1.27987 112.766 91.1843 137.513C183.65 162.257 283.327 117.062 313.767 36.5852Z" stroke="#A6A6A6" stroke-width="0.5" stroke-miterlimit="10"/>
<path fill-rule="evenodd" clip-rule="evenodd" d="M317.768 36.5893C349.493 -47.2807 297.069 -136.214 200.701 -162.001C104.329 -187.79 0.44915 -140.685 -31.2732 -56.8135C-62.9956 27.0581 -10.5747 115.99 85.7941 141.777C182.158 167.565 286.044 120.464 317.768 36.5893Z" stroke="#A6A6A6" stroke-width="0.5" stroke-miterlimit="10"/>
<path fill-rule="evenodd" clip-rule="evenodd" d="M321.774 36.5885C354.783 -50.6788 300.235 -143.211 199.968 -170.042C99.6978 -196.875 -8.39033 -147.864 -41.3979 -60.5991C-74.4072 26.6683 -19.8597 119.201 80.4105 146.033C180.676 172.867 288.767 123.858 321.774 36.5885Z" stroke="#A6A6A6" stroke-width="0.5" stroke-miterlimit="10"/>
<path d="M325.771 36.59C360.066 -54.0702 303.396 -150.204 199.228 -178.081C95.0561 -205.959 -17.2376 -155.04 -51.5292 -64.3779C-85.8208 26.284 -29.1542 122.416 75.0174 150.295C179.186 178.172 291.478 127.255 325.774 36.5917" stroke="#A6A6A6" stroke-width="0.5" stroke-miterlimit="10"/>
<path fill-rule="evenodd" clip-rule="evenodd" d="M329.778 36.59C365.356 -57.4676 306.565 -157.203 198.493 -186.123C90.4185 -215.044 -26.0792 -162.219 -61.6548 -68.1598C-97.2333 25.8978 -38.44 125.63 69.63 154.553C177.697 183.474 294.198 130.651 329.778 36.59Z" stroke="#A6A6A6" stroke-width="0.5" stroke-miterlimit="10"/>
<path fill-rule="evenodd" clip-rule="evenodd" d="M333.78 36.5922C370.641 -60.8599 309.73 -164.195 197.755 -194.158C85.7795 -224.125 -34.9237 -169.392 -71.7845 -71.9396C-108.645 25.5124 -47.7329 128.845 64.2401 158.81C176.213 188.776 296.918 134.047 333.78 36.5922Z" stroke="#A6A6A6" stroke-width="0.5" stroke-miterlimit="10"/>
<path fill-rule="evenodd" clip-rule="evenodd" d="M337.784 36.5924C375.931 -64.2554 312.894 -171.191 197.021 -202.198C81.1447 -233.206 -43.767 -176.566 -81.9101 -75.7197C-120.055 25.1299 -57.0188 132.061 58.8527 163.071C174.724 194.08 299.637 137.445 337.784 36.5924Z" stroke="#A6A6A6" stroke-width="0.5" stroke-miterlimit="10"/>
<path fill-rule="evenodd" clip-rule="evenodd" d="M341.786 36.5942C381.216 -67.6481 316.059 -178.184 196.285 -210.236C76.5075 -242.29 -52.607 -183.74 -92.0353 -79.501C-131.465 24.7413 -66.3072 135.274 53.4686 167.331C173.239 199.385 302.354 140.839 341.786 36.5942Z" stroke="#A6A6A6" stroke-width="0.5" stroke-miterlimit="10"/>
<path fill-rule="evenodd" clip-rule="evenodd" d="M345.79 36.5971C386.507 -71.041 319.224 -185.177 195.549 -218.271C71.8688 -251.367 -61.4495 -190.912 -102.162 -83.2755C-142.876 24.3642 -75.5969 138.494 48.0819 171.594C171.754 204.686 305.076 144.237 345.79 36.5971Z" stroke="#A6A6A6" stroke-width="0.5" stroke-miterlimit="10"/>
</g>
</g>
<defs>
<clipPath id="clip0_9429_137224">
<rect width="428" height="182" fill="white" transform="matrix(-1 0 0 1 428 0)"/>
</clipPath>
</defs>
</svg>
