<svg width="95" height="16" viewBox="0 0 95 16" fill="none" xmlns="http://www.w3.org/2000/svg">
<path d="M1.02 15.2L0.8 12.68L2.34 12.6C2.7 12.5733 2.99333 12.5 3.22 12.38C3.46 12.2467 3.64 12.06 3.76 11.82C3.88 11.58 3.94 11.28 3.94 10.92V0.899999H7.04V10.88C7.04 11.76 6.88 12.5067 6.56 13.12C6.25333 13.72 5.78667 14.1867 5.16 14.52C4.54667 14.8533 3.77333 15.0533 2.84 15.12L1.02 15.2ZM16.4209 15.22C15.3809 15.22 14.4276 15.0467 13.5609 14.7C12.7076 14.3533 11.9743 13.86 11.3609 13.22C10.7476 12.58 10.2743 11.8133 9.94094 10.92C9.62094 10.0267 9.46094 9.03333 9.46094 7.94C9.46094 6.83333 9.62094 5.84 9.94094 4.96C10.2743 4.06667 10.7476 3.30667 11.3609 2.68C11.9743 2.04 12.7076 1.54667 13.5609 1.2C14.4276 0.853333 15.3809 0.68 16.4209 0.68C17.4743 0.68 18.4276 0.853333 19.2809 1.2C20.1343 1.54667 20.8676 2.03333 21.4809 2.66C22.0943 3.28667 22.5676 4.04667 22.9009 4.94C23.2343 5.83333 23.4009 6.82667 23.4009 7.92C23.4009 9.02667 23.2343 10.0267 22.9009 10.92C22.5676 11.8133 22.0943 12.58 21.4809 13.22C20.8676 13.86 20.1343 14.3533 19.2809 14.7C18.4276 15.0467 17.4743 15.22 16.4209 15.22ZM16.4209 12.58C17.2209 12.58 17.8943 12.4 18.4409 12.04C18.9876 11.6667 19.4076 11.1333 19.7009 10.44C20.0076 9.73333 20.1609 8.9 20.1609 7.94C20.1609 6.96667 20.0143 6.13333 19.7209 5.44C19.4276 4.74667 19.0009 4.22 18.4409 3.86C17.8809 3.5 17.2076 3.32 16.4209 3.32C15.6476 3.32 14.9809 3.5 14.4209 3.86C13.8609 4.22 13.4343 4.74667 13.1409 5.44C12.8476 6.13333 12.7009 6.96667 12.7009 7.94C12.7009 8.9 12.8476 9.73333 13.1409 10.44C13.4343 11.1333 13.8609 11.6667 14.4209 12.04C14.9809 12.4 15.6476 12.58 16.4209 12.58ZM25.7989 15V0.899999H32.2589C33.7656 0.899999 34.9256 1.22667 35.7389 1.88C36.5656 2.53333 36.9789 3.42667 36.9789 4.56C36.9789 5.4 36.7389 6.11333 36.2589 6.7C35.7789 7.28667 35.1189 7.68 34.2789 7.88V7.56C34.9322 7.66667 35.4856 7.87333 35.9389 8.18C36.3922 8.48667 36.7389 8.88 36.9789 9.36C37.2322 9.84 37.3589 10.3933 37.3589 11.02C37.3589 11.8467 37.1589 12.56 36.7589 13.16C36.3722 13.76 35.8122 14.22 35.0789 14.54C34.3589 14.8467 33.4922 15 32.4789 15H25.7989ZM28.7589 12.7H32.0589C32.3789 12.7 32.6656 12.6733 32.9189 12.62C33.1722 12.5667 33.3856 12.4933 33.5589 12.4C33.7456 12.3067 33.8989 12.1867 34.0189 12.04C34.1389 11.88 34.2256 11.7 34.2789 11.5C34.3456 11.3 34.3789 11.08 34.3789 10.84C34.3789 10.5867 34.3456 10.3667 34.2789 10.18C34.2256 9.98 34.1389 9.80667 34.0189 9.66C33.8989 9.51333 33.7456 9.39333 33.5589 9.3C33.3856 9.19333 33.1722 9.12 32.9189 9.08C32.6656 9.02667 32.3789 9 32.0589 9H28.7589V12.7ZM28.7589 6.7H31.7189C32.4922 6.7 33.0656 6.55333 33.4389 6.26C33.8122 5.96667 33.9989 5.52667 33.9989 4.94C33.9989 4.36667 33.8122 3.93333 33.4389 3.64C33.0656 3.34667 32.4922 3.2 31.7189 3.2H28.7589V6.7Z" fill="#4880FF"/>
<path d="M44.7452 15.22C44.0118 15.22 43.2985 15.1533 42.6052 15.02C41.9252 14.9 41.2918 14.7267 40.7052 14.5C40.1185 14.26 39.6052 13.98 39.1652 13.66L40.0652 11.22C40.4918 11.5133 40.9518 11.7667 41.4452 11.98C41.9385 12.1933 42.4652 12.36 43.0252 12.48C43.5852 12.5867 44.1585 12.64 44.7452 12.64C45.7185 12.64 46.4118 12.4933 46.8252 12.2C47.2385 11.8933 47.4452 11.5133 47.4452 11.06C47.4452 10.8067 47.3785 10.5867 47.2452 10.4C47.1252 10.2133 46.9185 10.0533 46.6252 9.92C46.3452 9.77333 45.9585 9.65333 45.4652 9.56L43.2052 9.08C41.9252 8.81333 40.9718 8.36 40.3452 7.72C39.7318 7.06667 39.4252 6.21333 39.4252 5.16C39.4252 4.25333 39.6652 3.46667 40.1452 2.8C40.6385 2.13333 41.3118 1.61333 42.1652 1.24C43.0318 0.866666 44.0252 0.68 45.1452 0.68C45.7985 0.68 46.4252 0.746666 47.0252 0.879999C47.6252 0.999999 48.1785 1.18 48.6852 1.42C49.1918 1.66 49.6318 1.94667 50.0052 2.28L49.1052 4.56C48.5718 4.13333 47.9718 3.81333 47.3052 3.6C46.6385 3.37333 45.9118 3.26 45.1252 3.26C44.5652 3.26 44.0852 3.33333 43.6852 3.48C43.2985 3.62667 42.9985 3.83333 42.7852 4.1C42.5852 4.36667 42.4852 4.67333 42.4852 5.02C42.4852 5.40667 42.6252 5.72 42.9052 5.96C43.1852 6.2 43.6718 6.39333 44.3652 6.54L46.6252 7.02C47.9318 7.3 48.9052 7.75333 49.5452 8.38C50.1852 8.99333 50.5052 9.80667 50.5052 10.82C50.5052 11.7 50.2652 12.4733 49.7852 13.14C49.3185 13.7933 48.6518 14.3067 47.7852 14.68C46.9318 15.04 45.9185 15.22 44.7452 15.22ZM56.9777 15.22C55.9243 15.22 55.0043 15.0133 54.2177 14.6C53.4443 14.1867 52.8443 13.5933 52.4177 12.82C51.991 12.0467 51.7777 11.1333 51.7777 10.08C51.7777 9.02667 51.991 8.12 52.4177 7.36C52.8443 6.6 53.4443 6.01333 54.2177 5.6C55.0043 5.18667 55.9243 4.98 56.9777 4.98C58.031 4.98 58.9443 5.18667 59.7177 5.6C60.5043 6.01333 61.111 6.60667 61.5377 7.38C61.9777 8.14 62.1977 9.04 62.1977 10.08C62.1977 11.1333 61.9777 12.0467 61.5377 12.82C61.111 13.5933 60.5043 14.1867 59.7177 14.6C58.9443 15.0133 58.031 15.22 56.9777 15.22ZM56.9777 12.96C57.631 12.96 58.1577 12.7267 58.5577 12.26C58.9577 11.78 59.1577 11.0533 59.1577 10.08C59.1577 9.10667 58.9577 8.39333 58.5577 7.94C58.1577 7.47333 57.631 7.24 56.9777 7.24C56.3377 7.24 55.8177 7.47333 55.4177 7.94C55.0177 8.39333 54.8177 9.10667 54.8177 10.08C54.8177 11.0533 55.0177 11.78 55.4177 12.26C55.8177 12.7267 56.3377 12.96 56.9777 12.96ZM64.035 15V5.18H66.995V7.02H66.775C67.0817 6.36667 67.535 5.86667 68.135 5.52C68.7483 5.16 69.4417 4.98 70.215 4.98C71.0017 4.98 71.6483 5.13333 72.155 5.44C72.6617 5.73333 73.0417 6.18667 73.295 6.8C73.5483 7.4 73.675 8.16667 73.675 9.1V15H70.655V9.24C70.655 8.78667 70.595 8.42 70.475 8.14C70.3683 7.84667 70.2017 7.64 69.975 7.52C69.7617 7.38667 69.4883 7.32 69.155 7.32C68.7283 7.32 68.355 7.41333 68.035 7.6C67.7283 7.77333 67.4883 8.02667 67.315 8.36C67.1417 8.69333 67.055 9.08 67.055 9.52V15H64.035ZM79.2495 15.22C78.5295 15.22 77.8829 15.08 77.3095 14.8C76.7362 14.52 76.2895 14.14 75.9695 13.66C75.6495 13.18 75.4895 12.64 75.4895 12.04C75.4895 11.32 75.6762 10.7533 76.0495 10.34C76.4229 9.91333 77.0295 9.61333 77.8695 9.44C78.7095 9.25333 79.8229 9.16 81.2095 9.16H82.2695V10.72H81.2295C80.7095 10.72 80.2695 10.74 79.9095 10.78C79.5629 10.82 79.2762 10.8933 79.0495 11C78.8229 11.0933 78.6562 11.2133 78.5495 11.36C78.4562 11.5067 78.4095 11.6933 78.4095 11.92C78.4095 12.2933 78.5362 12.6 78.7895 12.84C79.0562 13.08 79.4362 13.2 79.9295 13.2C80.3162 13.2 80.6562 13.1133 80.9495 12.94C81.2562 12.7533 81.4962 12.5067 81.6695 12.2C81.8429 11.88 81.9295 11.52 81.9295 11.12V8.82C81.9295 8.23333 81.7962 7.82 81.5295 7.58C81.2629 7.32667 80.8095 7.2 80.1695 7.2C79.6362 7.2 79.0695 7.28667 78.4695 7.46C77.8829 7.62 77.2962 7.86667 76.7095 8.2L75.8895 6.18C76.2362 5.94 76.6562 5.73333 77.1495 5.56C77.6562 5.37333 78.1829 5.23333 78.7295 5.14C79.2762 5.03333 79.7962 4.98 80.2895 4.98C81.3162 4.98 82.1562 5.13333 82.8095 5.44C83.4762 5.73333 83.9762 6.19333 84.3095 6.82C84.6429 7.43333 84.8095 8.22667 84.8095 9.2V15H81.9895V13.02H82.1295C82.0495 13.4733 81.8762 13.8667 81.6095 14.2C81.3562 14.52 81.0295 14.7733 80.6295 14.96C80.2295 15.1333 79.7695 15.22 79.2495 15.22ZM87.0623 15V5.18H90.0223V7.58H89.8223C89.9823 6.78 90.329 6.16667 90.8623 5.74C91.409 5.3 92.129 5.04667 93.0223 4.98L93.9023 4.92L94.0823 7.46L92.3823 7.64C91.6223 7.70667 91.0557 7.92667 90.6823 8.3C90.3223 8.67333 90.1423 9.21333 90.1423 9.92V15H87.0623Z" fill="white"/>
</svg>
